<svg width="48" height="43" viewBox="0 0 48 43" fill="none" xmlns="http://www.w3.org/2000/svg">
<g filter="url(#filter0_d_208_7)">
<path d="M5.42857 6.42857H42.5714C43.3604 6.42857 44 5.78902 44 5V1.42857C44 0.639554 43.3604 0 42.5714 0H5.42857C4.63955 0 4 0.639554 4 1.42857V5C4 5.78902 4.63955 6.42857 5.42857 6.42857ZM5.42857 20.7143H42.5714C43.3604 20.7143 44 20.0747 44 19.2857V15.7143C44 14.9253 43.3604 14.2857 42.5714 14.2857H5.42857C4.63955 14.2857 4 14.9253 4 15.7143V19.2857C4 20.0747 4.63955 20.7143 5.42857 20.7143ZM5.42857 35H42.5714C43.3604 35 44 34.3604 44 33.5714V30C44 29.211 43.3604 28.5714 42.5714 28.5714H5.42857C4.63955 28.5714 4 29.211 4 30V33.5714C4 34.3604 4.63955 35 5.42857 35Z" fill="white"/>
</g>
<defs>
<filter id="filter0_d_208_7" x="0" y="0" width="48" height="43" filterUnits="userSpaceOnUse" color-interpolation-filters="sRGB">
<feFlood flood-opacity="0" result="BackgroundImageFix"/>
<feColorMatrix in="SourceAlpha" type="matrix" values="0 0 0 0 0 0 0 0 0 0 0 0 0 0 0 0 0 0 127 0" result="hardAlpha"/>
<feOffset dy="4"/>
<feGaussianBlur stdDeviation="2"/>
<feComposite in2="hardAlpha" operator="out"/>
<feColorMatrix type="matrix" values="0 0 0 0 0 0 0 0 0 0 0 0 0 0 0 0 0 0 0.25 0"/>
<feBlend mode="normal" in2="BackgroundImageFix" result="effect1_dropShadow_208_7"/>
<feBlend mode="normal" in="SourceGraphic" in2="effect1_dropShadow_208_7" result="shape"/>
</filter>
</defs>
</svg>
