<svg width="20" height="20" viewBox="0 0 20 20" fill="none" xmlns="http://www.w3.org/2000/svg">
<path d="M16.8344 2.87719C14.9826 1.02094 12.5164 0 9.89558 0C4.48594 0 0.0839732 4.40196 0.0839732 9.81161C0.0839732 11.5397 0.534777 13.228 1.39219 14.7174L0 19.8L5.20192 18.4343C6.63388 19.2166 8.24705 19.6276 9.89116 19.6276H9.89558C15.3008 19.6276 19.8 15.2257 19.8 9.81603C19.8 7.19518 18.6862 4.73344 16.8344 2.87719ZM9.89558 17.9747C8.42826 17.9747 6.99187 17.5813 5.74112 16.8388L5.445 16.6621L2.36009 17.4708L3.18214 14.4611L2.98768 14.1517C2.17004 12.8523 1.74134 11.3541 1.74134 9.81161C1.74134 5.31683 5.4008 1.65737 9.9 1.65737C12.0789 1.65737 14.1252 2.50594 15.6632 4.04839C17.2012 5.59085 18.1471 7.63714 18.1426 9.81603C18.1426 14.3152 14.3904 17.9747 9.89558 17.9747ZM14.3683 11.8667C14.1252 11.743 12.9186 11.1508 12.6932 11.0712C12.4678 10.9872 12.3043 10.9475 12.1408 11.195C11.9772 11.4425 11.5087 11.9905 11.3629 12.1584C11.2215 12.322 11.0756 12.3441 10.8325 12.2203C9.39174 11.4999 8.44594 10.9342 7.49571 9.30335C7.24379 8.87022 7.74763 8.90116 8.21612 7.9642C8.29567 7.80067 8.25589 7.65924 8.19402 7.53549C8.13214 7.41174 7.64156 6.20518 7.43826 5.7146C7.23937 5.23728 7.03607 5.30357 6.8858 5.29473C6.74437 5.28589 6.58085 5.28589 6.41732 5.28589C6.25379 5.28589 5.98862 5.34777 5.76321 5.59085C5.53781 5.83835 4.9058 6.43058 4.9058 7.63714C4.9058 8.84371 5.78531 10.0105 5.90464 10.174C6.02839 10.3375 7.63272 12.8125 10.0945 13.8777C11.6502 14.5495 12.2601 14.6069 13.0379 14.492C13.5108 14.4213 14.4876 13.8998 14.6909 13.3252C14.8942 12.7507 14.8942 12.2601 14.8323 12.1584C14.7749 12.0479 14.6113 11.9861 14.3683 11.8667Z" fill="white"/>
</svg>
