<svg width="20" height="21" viewBox="0 0 20 21" fill="none" xmlns="http://www.w3.org/2000/svg">
<path d="M5.74116 0H14.0559C17.2235 0 19.7971 2.62964 19.7971 5.86611V14.3619C19.7971 15.9176 19.1922 17.4097 18.1156 18.5098C17.0389 19.6099 15.5786 20.228 14.0559 20.228H5.74116C2.57362 20.228 0 17.5983 0 14.3619V5.86611C0 4.31032 0.604871 2.81825 1.68155 1.71814C2.75822 0.618035 4.21851 0 5.74116 0ZM5.54319 2.0228C4.5981 2.0228 3.69171 2.4064 3.02343 3.08923C2.35515 3.77206 1.97971 4.69817 1.97971 5.66383V14.5641C1.97971 16.5768 3.57338 18.2052 5.54319 18.2052H14.2539C15.199 18.2052 16.1054 17.8216 16.7737 17.1387C17.442 16.4559 17.8174 15.5298 17.8174 14.5641V5.66383C17.8174 3.65115 16.2237 2.0228 14.2539 2.0228H5.54319ZM15.0953 3.53989C15.4234 3.53989 15.7382 3.67309 15.9702 3.91018C16.2023 4.14728 16.3326 4.46884 16.3326 4.80414C16.3326 5.13944 16.2023 5.46101 15.9702 5.6981C15.7382 5.93519 15.4234 6.06839 15.0953 6.06839C14.7671 6.06839 14.4524 5.93519 14.2204 5.6981C13.9883 5.46101 13.858 5.13944 13.858 4.80414C13.858 4.46884 13.9883 4.14728 14.2204 3.91018C14.4524 3.67309 14.7671 3.53989 15.0953 3.53989ZM9.89855 5.05699C11.2112 5.05699 12.47 5.58978 13.3982 6.53815C14.3264 7.48652 14.8478 8.77279 14.8478 10.114C14.8478 11.4552 14.3264 12.7414 13.3982 13.6898C12.47 14.6382 11.2112 15.171 9.89855 15.171C8.58592 15.171 7.32705 14.6382 6.39888 13.6898C5.47072 12.7414 4.94928 11.4552 4.94928 10.114C4.94928 8.77279 5.47072 7.48652 6.39888 6.53815C7.32705 5.58978 8.58592 5.05699 9.89855 5.05699ZM9.89855 7.07979C9.11097 7.07979 8.35565 7.39946 7.79875 7.96848C7.24185 8.53751 6.92899 9.30927 6.92899 10.114C6.92899 10.9187 7.24185 11.6905 7.79875 12.2595C8.35565 12.8285 9.11097 13.1482 9.89855 13.1482C10.6861 13.1482 11.4414 12.8285 11.9984 12.2595C12.5553 11.6905 12.8681 10.9187 12.8681 10.114C12.8681 9.30927 12.5553 8.53751 11.9984 7.96848C11.4414 7.39946 10.6861 7.07979 9.89855 7.07979Z" fill="white"/>
</svg>
