<svg width="20" height="21" viewBox="0 0 20 21" fill="none" xmlns="http://www.w3.org/2000/svg">
<path d="M9.89856 0C7.94081 0 6.02702 0.593175 4.39922 1.70451C2.77141 2.81585 1.50268 4.39544 0.753487 6.24353C0.00428888 8.09162 -0.191735 10.1252 0.190202 12.0871C0.57214 14.049 1.51489 15.8512 2.89922 17.2657C4.28356 18.6801 6.04731 19.6434 7.96744 20.0336C9.88758 20.4239 11.8778 20.2236 13.6866 19.4581C15.4953 18.6926 17.0412 17.3962 18.1289 15.733C19.2166 14.0698 19.7971 12.1143 19.7971 10.114C19.7945 7.43241 18.7508 4.86143 16.895 2.96527C15.0392 1.06911 12.523 0.00267756 9.89856 0ZM15.7773 7.80092V8.45428C15.7773 8.50429 15.7675 8.55379 15.7485 8.59986C15.7295 8.64594 15.7016 8.68765 15.6666 8.72253C15.6315 8.75742 15.5899 8.78477 15.5444 8.80297C15.4988 8.82117 15.4501 8.82985 15.4012 8.8285C14.3561 8.75281 13.3563 8.36291 12.5276 7.70787V12.4898C12.5275 13.019 12.4241 13.5429 12.2236 14.0309C12.023 14.5189 11.7293 14.9611 11.3596 15.3318C10.9865 15.7117 10.5432 16.012 10.0555 16.2152C9.56779 16.4183 9.04537 16.5203 8.5187 16.5151C7.45948 16.5132 6.4429 16.0886 5.68573 15.3318C5.20406 14.8356 4.85712 14.2198 4.67904 13.5451C4.50097 12.8703 4.4979 12.1598 4.67014 11.4834C4.82753 10.8341 5.14527 10.2374 5.59368 9.75089C5.92808 9.33327 6.3496 8.9973 6.82742 8.76753C7.30525 8.53777 7.82729 8.42003 8.35537 8.42293H9.16705V10.1453C9.16741 10.1954 9.15733 10.2449 9.13748 10.2906C9.11763 10.3363 9.08847 10.3772 9.05194 10.4105C9.01541 10.4438 8.97235 10.4688 8.92563 10.4838C8.87891 10.4987 8.82961 10.5033 8.78101 10.4973C8.30973 10.3527 7.8019 10.4006 7.36456 10.6311C6.92723 10.8616 6.59456 11.2566 6.43668 11.7328C6.2788 12.209 6.30804 12.7292 6.51825 13.1838C6.72846 13.6384 7.1032 13.9919 7.56349 14.1697C7.83075 14.3265 8.12968 14.4185 8.43654 14.4397C8.6741 14.4498 8.91167 14.4195 9.13736 14.3467C9.51428 14.2171 9.84216 13.9704 10.0752 13.6411C10.3082 13.3118 10.4347 12.9163 10.437 12.51V3.79679C10.4369 3.74902 10.446 3.7017 10.4638 3.65753C10.4816 3.61336 10.5078 3.57321 10.5408 3.53939C10.5738 3.50557 10.613 3.47873 10.6562 3.46042C10.6994 3.44211 10.7456 3.43269 10.7924 3.43269H12.193C12.2841 3.43256 12.3718 3.46816 12.4379 3.53215C12.504 3.59614 12.5436 3.68363 12.5484 3.77656C12.5996 4.22277 12.7384 4.65384 12.9564 5.04398C13.1745 5.43412 13.4673 5.77532 13.8174 6.04715C14.2906 6.41013 14.8527 6.63271 15.4417 6.6904C15.53 6.69811 15.6125 6.73822 15.674 6.8033C15.7355 6.86838 15.7719 6.95403 15.7763 7.04439L15.7773 7.80092Z" fill="white"/>
</svg>
